<svg width="190" height="16" viewBox="0 0 190 16" fill="none" xmlns="http://www.w3.org/2000/svg">
<path d="M0 15.5H3.69461V0.5H0V15.5Z" fill="white"/>
<path d="M16.9009 6.87473V4.24738H27.7783C28.2118 4.24738 28.5833 4.37648 28.8929 4.63468C29.2025 4.8859 29.3573 5.19294 29.3573 5.55582C29.3573 5.91869 29.2025 6.22923 28.8929 6.48743C28.5833 6.74563 28.2118 6.87473 27.7783 6.87473H16.9009ZM33.0107 15.5L27.6958 10.6221H27.7783C29.23 10.6221 30.4719 10.1266 31.5039 9.13571C32.5359 8.14479 33.0519 6.95149 33.0519 5.55582C33.0519 4.11828 32.5153 2.90404 31.442 1.91312C30.4237 0.971039 29.2025 0.5 27.7783 0.5H13.2063V15.5H16.9009V10.6221H22.1848L27.4997 15.5H33.0107Z" fill="white"/>
<path d="M47.2422 5.48255C48.2398 4.6591 49.4644 4.24738 50.9161 4.24738H54.394C55.8457 4.24738 57.0669 4.6591 58.0577 5.48255C58.9383 6.20829 59.3787 7.05268 59.3787 8.01569C59.3787 8.97172 58.9418 9.80564 58.068 10.5174C57.0704 11.3339 55.8457 11.7421 54.394 11.7421H50.9161C49.4575 11.7421 48.2329 11.3339 47.2422 10.5174C46.3615 9.80564 45.9212 8.97172 45.9212 8.01569C45.9212 7.05268 46.3615 6.20829 47.2422 5.48255ZM44.9201 13.4379C46.592 14.8056 48.5907 15.4895 50.9161 15.4895H54.394C56.7195 15.4895 58.7182 14.8056 60.39 13.4379C61.2156 12.761 61.8624 11.9724 62.3302 11.0722C62.8325 10.1022 63.0836 9.08338 63.0836 8.01569C63.0836 6.94102 62.8325 5.91869 62.3302 4.9487C61.8692 4.04849 61.2225 3.25645 60.39 2.57257C58.7182 1.19086 56.7195 0.5 54.394 0.5H50.9161C48.5907 0.5 46.5885 1.19086 44.9098 2.57257C44.0842 3.25645 43.4375 4.04849 42.9696 4.9487C42.4742 5.91869 42.2266 6.94102 42.2266 8.01569C42.2266 9.08338 42.4742 10.1022 42.9696 11.0722C43.4375 11.9724 44.0876 12.761 44.9201 13.4379Z" fill="white"/>
<path d="M87.2912 0.5V10.5593L75.3921 0.5H71.3982V15.5H75.0928V5.12665L87.3635 15.5H90.9961V0.5H87.2912Z" fill="white"/>
<path d="M117.791 9.87891C118.045 9.87891 118.262 9.96963 118.441 10.1511C118.627 10.3325 118.72 10.5523 118.72 10.8105C118.72 11.0687 118.627 11.2885 118.441 11.47C118.262 11.6584 118.045 11.7526 117.791 11.7526H103.373V15.5H117.791C119.064 15.5 120.151 15.0429 121.052 14.1287C121.96 13.2076 122.414 12.1015 122.414 10.8105C122.414 9.51952 121.96 8.41694 121.052 7.50278C120.151 6.58164 119.064 6.12107 117.791 6.12107H107.625C107.371 6.12107 107.154 6.03035 106.975 5.84891C106.789 5.66747 106.697 5.44765 106.697 5.18945C106.697 4.93126 106.789 4.71144 106.975 4.53C107.154 4.34158 107.371 4.24738 107.625 4.24738H121.454V0.5H107.625C106.353 0.5 105.262 0.957083 104.354 1.87125C103.453 2.79239 103.002 3.89846 103.002 5.18945C103.002 6.48045 103.453 7.58303 104.354 8.49719C105.262 9.41834 106.353 9.87891 107.625 9.87891H117.791Z" fill="white"/>
<path d="M139.608 0.5L129.628 15.5H134.086L135.583 13.2495H147.079L148.576 15.5H153.034L143.054 0.5H139.608ZM141.331 4.61374L144.582 9.50208H138.08L141.331 4.61374Z" fill="white"/>
<path d="M161.077 15.5H164.772V0.5H161.077V15.5Z" fill="white"/>
<path d="M175.422 0.500027V15.5H190V11.7527L179.116 11.7526V0.500027H175.422Z" fill="white"/>
</svg>
